<?xml version="1.0" encoding="UTF-8"?>
<svg version="1.1" viewBox="0 0 422.76 103.84" xmlns="http://www.w3.org/2000/svg"><defs><clipPath id="a"><path d="m120.83 120.83h2312.5v3060.9h-2312.5z" clip-rule="evenodd"/></clipPath></defs><g transform="matrix(.32 0 0 .32 -152.09 -177.88)"><rect x="475.27" y="555.87" width="1321.1" height="324.5" fill="#fff"/><g transform="translate(35.474 -268.47)"><g clip-path="url(#a)"><g transform="matrix(2.1023 0 0 2.1023 120.83 120.83)"><text transform="translate(166,364)" fill="#1a0dab" font-family="Arimo" font-size="20px"><tspan x="0 5.5566406 18.896484 33.339844 46.679688 52.236328 72.236328 77.792969 83.349609 96.689453 111.13281 124.47266 131.13281 147.79297 158.91602 170.03906 181.16211 192.28516 203.4082 214.53125 220.08789 234.53125 245.6543 255.6543 266.77734 273.4375 283.4375 294.56055 305.68359 311.24023 325.68359 336.80664 353.4668 364.58984 369.0332 380.15625" y="0">IANA — IANA-managed Reserved Domains</tspan></text><text transform="translate(166,388)" fill="#006621" font-family="Arimo" font-size="16px"><tspan x="0 8.8984375 13.34375 17.789062 26.6875 34.6875 39.132812 43.578125 48.023438 59.578125 71.132812 81.804688 86.25 89.804688 98.703125 107.60156 116.5 120.94531 129.84375 135.17188 144.07031 148.51562 153.84375 158.28906 167.1875 176.08594 189.41406 198.3125 201.86719 210.76562 218.76562 223.21094 228.53906 232.98438 238.3125 247.21094 255.21094 264.10938 269.4375 277.4375 286.33594" y="0">https://www.iana.org › domains › reserved</tspan></text><text transform="translate(480.23 388)" fill="#1a0dab" font-family="Arimo" font-size="16px"><tspan x="0 9.1796875 14.507812 23.40625 32.304688 41.203125 44.757812 50.085938 58.984375 63.429688 71.429688 80.328125 84.773438 89.21875 98.117188 102.5625 111.46094 120.35938 129.25781" y="0">Traduire cette page</tspan></text><text transform="translate(166,411)" fill="#6a6a6a" font-family="Arimo" font-size="14px" font-weight="bold"><tspan x="0 3.8896484 14 24.110352" y="0">IANA</tspan></text><text transform="translate(200.22 411)" fill="#545454" font-family="Arimo" font-size="14px"><tspan x="0 4.6621094 16.324219 24.110352 31.896484 39.682617 47.46875 55.254883 63.041016" y="0">-managed</tspan></text><text transform="translate(267.14 411)" fill="#6a6a6a" font-family="Arimo" font-size="14px" font-weight="bold"><tspan x="0 10.110352 17.896484 25.682617 33.46875 38.916992 46.703125 54.489258 63.041016 66.930664 77.041016 85.592773 98.041016 105.82715 109.7168 118.26855" y="0">Reserved Domains</tspan></text><text transform="translate(393.19 411)" fill="#545454" font-family="Arimo" font-size="14px"><tspan x="0 3.8896484 7.7792969 17.117188 24.117188 31.90332 43.56543 51.351562 54.461914 62.248047" y="0">. Example</tspan></text><text transform="translate(459.31 411)" fill="#6a6a6a" font-family="Arimo" font-size="14px" font-weight="bold"><tspan x="0 8.5517578 17.103516 29.551758 37.337891 41.227539 49.779297" y="0">domains</tspan></text><text transform="translate(516.88 411)" fill="#545454" font-family="Arimo" font-size="14px"><tspan x="0 3.8896484 7.7792969 17.117188 24.117188 28.006836 35.792969 43.579102 50.579102 57.579102 62.241211 65.351562 73.137695 80.923828 88.709961 92.599609 95.709961 103.49609 107.38574 117.49609 126.04785 136.1582 140.04785 147.83398 155.62012 163.40625 171.19238 175.08203 182.86816 190.6543 198.44043 202.33008 212.44043 220.99219" y="0">. As described in RFC 2606 and RFC</tspan></text><text transform="translate(166,432)" fill="#545454" font-family="Arimo" font-size="14px"><tspan x="0 7.7861328 15.572266 23.358398 31.144531 35.03418 38.923828 46.709961 50.599609 58.385742 66.171875 77.833984 85.620117 93.40625 98.068359 101.95801 109.74414 113.63379" y="0">6761, a number of</tspan></text><text transform="translate(283.52 432)" fill="#6a6a6a" font-family="Arimo" font-size="14px" font-weight="bold"><tspan x="0 8.5517578 17.103516 29.551758 37.337891 41.227539 49.779297" y="0">domains</tspan></text><text transform="translate(344.97 432)" fill="#545454" font-family="Arimo" font-size="14px"><tspan x="0 7 14.786133 21.786133 29.572266 33.461914 41.248047 48.248047 52.137695 59.923828 66.923828 74.709961 86.37207 94.158203 97.268555 105.05469 108.94434 115.94434 123.73047 135.39258 139.28223 147.06836 154.85449 162.64062 166.53027 174.31641 181.31641 189.10254 200.76465 208.55078 211.66113 219.44727 223.33691 231.12305 235.78516 243.57129 247.46094 255.24707 259.90918 267.69531 271.58496 283.24707 291.0332 294.14355 301.92969 305.81934 313.60547 316.71582 324.50195 332.28809 340.07422 343.96387 347.85352 355.63965" y="0">such as example.com and example.org are maintained for</tspan></text><text transform="translate(166,453)" fill="#545454" font-family="Arimo" font-size="14px"><tspan x="0 7.7861328 15.572266 22.572266 30.358398 42.020508 49.806641 57.592773 61.482422 69.268555 73.158203 76.268555 84.054688 91.84082 95.730469 103.5166 111.30273 115.96484 123.75098 131.53711 138.53711 146.32324 153.32324 157.21289 161.10254 168.10254 175.88867 182.88867 186.77832 190.66797 194.55762 204.66797 214.77832 218.66797 222.55762 230.34375 238.12988 242.79199 245.90234 253.68848 260.68848 268.47461 271.58496" y="0">documentation purposes. Test IDN top-level</tspan></text><text transform="translate(441.47 453)" fill="#6a6a6a" font-family="Arimo" font-size="14px" font-weight="bold"><tspan x="0 8.5517578 17.103516 29.551758 37.337891 41.227539 49.779297" y="0">domains</tspan></text><text transform="translate(499.03 453)" fill="#545454" font-family="Arimo" font-size="14px"><tspan x="0 3.8896484 7.7792969 17.117188 24.90332 28.013672 31.124023 38.124023 45.124023" y="0">. Policy-</tspan></text><text transform="translate(548.81 453)" fill="#6a6a6a" font-family="Arimo" font-size="14px" font-weight="bold"><tspan x="0 5.4482422 13.234375 21.020508 28.806641 34.254883 42.041016 49.827148 58.378906 62.268555 70.820312 79.37207 91.820312 99.606445 103.49609 112.04785" y="0">reserved domains</tspan></text><text transform="translate(668.64 453)" fill="#545454" font-family="Arimo" font-size="14px"><tspan x="0 3.8896484 7.7792969 18.668945 22.558594 30.344727 38.130859 42.792969 46.682617 56.020508 63.806641 71.592773 78.592773 81.703125 89.489258 92.599609" y="0">. Other Special-</tspan></text><text transform="translate(166,474)" fill="#545454" font-family="Arimo" font-size="14px"><tspan x="0 10.110352 17.110352 24.896484" y="0">Use</tspan></text><text transform="translate(194.78 474)" fill="#6a6a6a" font-family="Arimo" font-size="14px" font-weight="bold"><tspan x="0 10.110352 18.662109 31.110352 38.896484 42.786133 51.337891" y="0">Domains</tspan></text><text transform="translate(253.89 474)" fill="#545454" font-family="Arimo" font-size="14px"><tspan x="0" y="0">.</tspan></text><path d="m464 375h13v12h-13z" fill="#fff"/><path d="m467 380 4 5 4-5" fill="#006621"/></g></g></g></g></svg>
